<svg xmlns="http://www.w3.org/2000/svg" xmlns:xlink="http://www.w3.org/1999/xlink" width="1760" height="602.75"><rect width="1760" height="602.75" rx="5" ry="5" class="a"/><svg y="0%" x="0%"><circle cx="20" cy="20" r="6" fill="#ff5f58"/><circle cx="40" cy="20" r="6" fill="#ffbd2e"/><circle cx="60" cy="20" r="6" fill="#18c132"/></svg><svg height="542.75" viewBox="0 0 172 54.275" width="1720" x="15" xmlns="http://www.w3.org/2000/svg" xmlns:xlink="http://www.w3.org/1999/xlink" y="50"><style>@keyframes m{0%{transform:translateX(0)}.09%{transform:translateX(-172px)}4.63%{transform:translateX(-344px)}4.92%{transform:translateX(-516px)}5.25%{transform:translateX(-688px)}5.4%{transform:translateX(-860px)}6.9%{transform:translateX(-1032px)}7.14%{transform:translateX(-1204px)}7.44%{transform:translateX(-1376px)}9.66%{transform:translateX(-1548px)}10.33%{transform:translateX(-1720px)}10.81%{transform:translateX(-1892px)}11.61%{transform:translateX(-2064px)}15.55%{transform:translateX(-2236px)}16.28%{transform:translateX(-2408px)}17%{transform:translateX(-2580px)}17.68%{transform:translateX(-2752px)}19.03%{transform:translateX(-2924px)}20.37%{transform:translateX(-3096px)}21.09%{transform:translateX(-3612px)}21.1%{transform:translateX(-3784px)}28.85%{transform:translateX(-3956px)}29.33%{transform:translateX(-4128px)}29.89%{transform:translateX(-4472px)}33.24%{transform:translateX(-4644px)}33.95%{transform:translateX(-5160px)}33.96%{transform:translateX(-5332px)}38.85%{transform:translateX(-5504px)}39.48%{transform:translateX(-5676px)}40.18%{transform:translateX(-5848px)}41.59%{transform:translateX(-6536px)}47.22%{transform:translateX(-6708px)}48.11%{transform:translateX(-6880px)}56.49%{transform:translateX(-7052px)}57.25%{transform:translateX(-7224px)}58.26%{transform:translateX(-7912px)}63.84%{transform:translateX(-8084px)}64.38%{transform:translateX(-8256px)}64.79%{transform:translateX(-8600px)}65.95%{transform:translateX(-8772px)}66.83%{transform:translateX(-9460px)}74.48%{transform:translateX(-9632px)}74.91%{transform:translateX(-9804px)}77.99%{transform:translateX(-9976px)}78.76%{transform:translateX(-10664px)}83.71%{transform:translateX(-10836px)}84.29%{transform:translateX(-11008px)}84.71%{transform:translateX(-11352px)}87.94%{transform:translateX(-11524px)}88.57%{transform:translateX(-11868px)}88.58%{transform:translateX(-12212px)}92.36%{transform:translateX(-12384px)}99.18%{transform:translateX(-12900px)}to{transform:translateX(-13244px)}}.a{fill:#282d35}.f,.g,.h{fill:#a8cc8c;white-space:pre}.g,.h{fill:#b9bfca}.h{fill:#b9c0cb}.i{fill:#b9bfca}.j{fill:#282d35;white-space:pre}</style><g font-family="Monaco,Consolas,Menlo,'Bitstream Vera Sans Mono','Powerline Symbols',monospace" font-size="1.67"><defs><symbol id="12"><text y="1.67" class="f">lb-01:~</text><text x="7.014" y="1.67" class="g">#</text><text x="9.018" y="1.67" class="h">dploy</text><text x="15.03" y="1.67" class="h">play</text><text x="20.04" y="1.67" class="h">--filter</text><text x="29.058" y="1.67" class="h">&quot;platform==aws,customer&quot;</text></symbol><symbol id="1"><text y="1.67" class="f">lb-01:~</text><text x="7.014" y="1.67" class="g">#</text><text x="9.018" y="1.67" class="h">dploy</text><text x="15.03" y="1.67" class="h">play</text><text x="20.04" y="1.67" class="h">--filter</text></symbol><symbol id="3"><text y="1.67" class="h">customer</text><text x="10.02" y="1.67" class="h">env</text><text x="20.04" y="1.67" class="h">os</text><text x="30.06" y="1.67" class="h">platform</text><text x="40.08" y="1.67" class="h">priority</text></symbol><symbol id="4"><text y="1.67" class="f">lb-01:~</text><text x="7.014" y="1.67" class="g">#</text><text x="9.018" y="1.67" class="h">dploy</text><text x="15.03" y="1.67" class="h">play</text><text x="20.04" y="1.67" class="h">--filter</text><text x="29.058" y="1.67" class="h">&quot;pl&quot;</text></symbol><symbol id="5"><text y="1.67" class="f">lb-01:~</text><text x="7.014" y="1.67" class="g">#</text><text x="9.018" y="1.67" class="h">dploy</text><text x="15.03" y="1.67" class="h">play</text><text x="20.04" y="1.67" class="h">--filter</text><text x="29.058" y="1.67" class="h">&quot;platform&quot;</text></symbol><symbol id="6"><text y="1.67" class="h">platform^=</text><text x="12.024" y="1.67" class="h">platform~=</text><text x="24.048" y="1.67" class="h">platform==</text><text x="36.072" y="1.67" class="h">platform!=</text><text x="48.096" y="1.67" class="h">platform$=</text></symbol><symbol id="7"><text y="1.67" class="f">lb-01:~</text><text x="7.014" y="1.67" class="g">#</text><text x="9.018" y="1.67" class="h">dploy</text><text x="15.03" y="1.67" class="h">play</text><text x="20.04" y="1.67" class="h">--filter</text><text x="29.058" y="1.67" class="h">&quot;platform==&quot;</text></symbol><symbol id="8"><text y="1.67" class="h">platform==aws</text><text x="15.03" y="1.67" class="h">platform==os</text></symbol><symbol id="9"><text y="1.67" class="f">lb-01:~</text><text x="7.014" y="1.67" class="g">#</text><text x="9.018" y="1.67" class="h">dploy</text><text x="15.03" y="1.67" class="h">play</text><text x="20.04" y="1.67" class="h">--filter</text><text x="29.058" y="1.67" class="h">&quot;platform==aws,&quot;</text></symbol><symbol id="10"><text y="1.67" class="h">platform==aws,customer</text><text x="24.048" y="1.67" class="h">platform==aws,env</text><text x="48.096" y="1.67" class="h">platform==aws,os</text><text x="72.144" y="1.67" class="h">platform==aws,platform</text><text x="96.192" y="1.67" class="h">platform==aws,priority</text></symbol><symbol id="11"><text y="1.67" class="f">lb-01:~</text><text x="7.014" y="1.67" class="g">#</text><text x="9.018" y="1.67" class="h">dploy</text><text x="15.03" y="1.67" class="h">play</text><text x="20.04" y="1.67" class="h">--filter</text><text x="29.058" y="1.67" class="h">&quot;platform==aws,cu&quot;</text></symbol><symbol id="2"><text y="1.67" class="f">lb-01:~</text><text x="7.014" y="1.67" class="g">#</text><text x="9.018" y="1.67" class="h">dploy</text><text x="15.03" y="1.67" class="h">play</text><text x="20.04" y="1.67" class="h">--filter</text><text x="29.058" y="1.67" class="h">&quot;&quot;</text></symbol><symbol id="13"><text y="1.67" class="h">platform==aws,customer^=</text><text x="26.052" y="1.67" class="h">platform==aws,customer~=</text><text x="52.104" y="1.67" class="h">platform==aws,customer==</text><text x="78.156" y="1.67" class="h">platform==aws,customer!=</text><text x="104.208" y="1.67" class="h">platform==aws,customer$=</text></symbol><symbol id="14"><text y="1.67" class="f">lb-01:~</text><text x="7.014" y="1.67" class="g">#</text><text x="9.018" y="1.67" class="h">dploy</text><text x="15.03" y="1.67" class="h">play</text><text x="20.04" y="1.67" class="h">--filter</text><text x="29.058" y="1.67" class="h">&quot;platform==aws,customer!=&quot;</text></symbol><symbol id="15"><text y="1.67" class="h">platform==aws,customer!=customer1</text><text x="35.07" y="1.67" class="h">platform==aws,customer!=customer2</text><text x="70.14" y="1.67" class="h">platform==aws,customer!=customer3</text><text x="105.21" y="1.67" class="h">platform==aws,customer!=dploy</text></symbol><symbol id="16"><text y="1.67" class="f">lb-01:~</text><text x="7.014" y="1.67" class="g">#</text><text x="9.018" y="1.67" class="h">dploy</text><text x="15.03" y="1.67" class="h">play</text><text x="20.04" y="1.67" class="h">--filter</text><text x="29.058" y="1.67" class="h">&quot;platform==aws,customer!=cu&quot;</text></symbol><symbol id="17"><text y="1.67" class="f">lb-01:~</text><text x="7.014" y="1.67" class="g">#</text><text x="9.018" y="1.67" class="h">dploy</text><text x="15.03" y="1.67" class="h">play</text><text x="20.04" y="1.67" class="h">--filter</text><text x="29.058" y="1.67" class="h">&quot;platform==aws,customer!=customer&quot;</text></symbol><symbol id="18"><text y="1.67" class="h">platform==aws,customer!=customer1</text><text x="35.07" y="1.67" class="h">platform==aws,customer!=customer2</text><text x="70.14" y="1.67" class="h">platform==aws,customer!=customer3</text></symbol><symbol id="19"><text y="1.67" class="f">lb-01:~</text><text x="7.014" y="1.67" class="g">#</text><text x="9.018" y="1.67" class="h">dploy</text><text x="15.03" y="1.67" class="h">play</text><text x="20.04" y="1.67" class="h">--filter</text><text x="29.058" y="1.67" class="h">&quot;platform==aws,customer!=customer1^C</text></symbol><symbol id="20"><text y="1.67" class="f">lb-01:~</text><path class="i" d="M7.014 0h1v2.171h-1z"/><text x="7.014" y="1.67" class="j">#</text><text x="9.018" y="1.67" class="h">exit</text></symbol><symbol id="a"><path fill="transparent" d="M0 0h172v25H0z"/></symbol><symbol id="b"><path fill="#6f7683" d="M0 0h1.102v2.171H0z"/></symbol></defs><path class="a" d="M0 0h172v54.275H0z"/><g style="animation-duration:23.272525s;animation-iteration-count:infinite;animation-name:m;animation-timing-function:steps(1,end)"><svg width="13416"><svg><use xlink:href="#a"/><use xlink:href="#b" x="-.004"/></svg><svg x="172"><use xlink:href="#a"/><use xlink:href="#b" x="8.996"/><text y="1.67" class="f">lb-01:~</text><text x="7.014" y="1.67" class="g">#</text></svg><svg x="344"><use xlink:href="#a"/><use xlink:href="#b" x="9.996"/><text y="1.67" class="f">lb-01:~</text><text x="7.014" y="1.67" class="g">#</text><text x="9.018" y="1.67" class="h">d</text></svg><svg x="516"><use xlink:href="#a"/><use xlink:href="#b" x="10.996"/><text y="1.67" class="f">lb-01:~</text><text x="7.014" y="1.67" class="g">#</text><text x="9.018" y="1.67" class="h">dp</text></svg><svg x="688"><use xlink:href="#a"/><use xlink:href="#b" x="11.996"/><text y="1.67" class="f">lb-01:~</text><text x="7.014" y="1.67" class="g">#</text><text x="9.018" y="1.67" class="h">dpl</text></svg><svg x="860"><use xlink:href="#a"/><use xlink:href="#b" x="14.996"/><text y="1.67" class="f">lb-01:~</text><text x="7.014" y="1.67" class="g">#</text><text x="9.018" y="1.67" class="h">dploy</text></svg><svg x="1032"><use xlink:href="#a"/><use xlink:href="#b" x="15.996"/><text y="1.67" class="f">lb-01:~</text><text x="7.014" y="1.67" class="g">#</text><text x="9.018" y="1.67" class="h">dploy</text><text x="15.03" y="1.67" class="h">p</text></svg><svg x="1204"><use xlink:href="#a"/><use xlink:href="#b" x="16.996"/><text y="1.67" class="f">lb-01:~</text><text x="7.014" y="1.67" class="g">#</text><text x="9.018" y="1.67" class="h">dploy</text><text x="15.03" y="1.67" class="h">pl</text></svg><svg x="1376"><use xlink:href="#a"/><use xlink:href="#b" x="19.996"/><text y="1.67" class="f">lb-01:~</text><text x="7.014" y="1.67" class="g">#</text><text x="9.018" y="1.67" class="h">dploy</text><text x="15.03" y="1.67" class="h">play</text></svg><svg x="1548"><use xlink:href="#a"/><use xlink:href="#b" x="20.996"/><text y="1.67" class="f">lb-01:~</text><text x="7.014" y="1.67" class="g">#</text><text x="9.018" y="1.67" class="h">dploy</text><text x="15.03" y="1.67" class="h">play</text><text x="20.04" y="1.67" class="h">-</text></svg><svg x="1720"><use xlink:href="#a"/><use xlink:href="#b" x="21.996"/><text y="1.67" class="f">lb-01:~</text><text x="7.014" y="1.67" class="g">#</text><text x="9.018" y="1.67" class="h">dploy</text><text x="15.03" y="1.67" class="h">play</text><text x="20.04" y="1.67" class="h">--</text></svg><svg x="1892"><use xlink:href="#a"/><use xlink:href="#b" x="22.996"/><text y="1.67" class="f">lb-01:~</text><text x="7.014" y="1.67" class="g">#</text><text x="9.018" y="1.67" class="h">dploy</text><text x="15.03" y="1.67" class="h">play</text><text x="20.04" y="1.67" class="h">--f</text></svg><svg x="2064"><use xlink:href="#a"/><use xlink:href="#b" x="28.996"/><text y="1.67" class="f">lb-01:~</text><text x="7.014" y="1.67" class="g">#</text><text x="9.018" y="1.67" class="h">dploy</text><text x="15.03" y="1.67" class="h">play</text><text x="20.04" y="1.67" class="h">--filter=</text></svg><svg x="2236"><use xlink:href="#a"/><use xlink:href="#b" x="27.996"/><use xlink:href="#1"/></svg><svg x="2408"><use xlink:href="#a"/><use xlink:href="#b" x="28.996"/><use xlink:href="#1"/></svg><svg x="2580"><use xlink:href="#a"/><use xlink:href="#b" x="29.996"/><text y="1.67" class="f">lb-01:~</text><text x="7.014" y="1.67" class="g">#</text><text x="9.018" y="1.67" class="h">dploy</text><text x="15.03" y="1.67" class="h">play</text><text x="20.04" y="1.67" class="h">--filter</text><text x="29.058" y="1.67" class="h">&quot;</text></svg><svg x="2752"><use xlink:href="#a"/><use xlink:href="#b" x="30.996"/><use xlink:href="#2"/></svg><svg x="2924"><use xlink:href="#a"/><use xlink:href="#b" x="29.996"/><use xlink:href="#2"/></svg><svg x="3096"><use xlink:href="#a"/><use xlink:href="#b" x="29.996"/><use xlink:href="#2"/></svg><svg x="3268"><use xlink:href="#a"/><use xlink:href="#b" x="-.004" y="2.146"/><use xlink:href="#2"/></svg><svg x="3440"><use xlink:href="#a"/><use xlink:href="#b" x="49.996" y="2.146"/><use xlink:href="#2"/><use xlink:href="#3" y="2.171"/></svg><svg x="3612"><use xlink:href="#a"/><use xlink:href="#b" x="-.004" y="4.317"/><use xlink:href="#2"/><use xlink:href="#3" y="2.171"/></svg><svg x="3784"><use xlink:href="#a"/><use xlink:href="#b" x="29.996" y="4.317"/><use xlink:href="#2"/><use xlink:href="#3" y="2.171"/><use xlink:href="#2" y="4.342"/></svg><svg x="3956"><use xlink:href="#a"/><use xlink:href="#b" x="30.996" y="4.317"/><use xlink:href="#2"/><use xlink:href="#3" y="2.171"/><text y="6.012" class="f">lb-01:~</text><text x="7.014" y="6.012" class="g">#</text><text x="9.018" y="6.012" class="h">dploy</text><text x="15.03" y="6.012" class="h">play</text><text x="20.04" y="6.012" class="h">--filter</text><text x="29.058" y="6.012" class="h">&quot;p&quot;</text></svg><svg x="4128"><use xlink:href="#a"/><use xlink:href="#b" x="31.996" y="4.317"/><use xlink:href="#2"/><use xlink:href="#3" y="2.171"/><use xlink:href="#4" y="4.342"/></svg><svg x="4300"><use xlink:href="#a"/><use xlink:href="#b" x="31.996" y="4.317"/><use xlink:href="#2"/><use xlink:href="#3" y="2.171"/><use xlink:href="#4" y="4.342"/></svg><svg x="4472"><use xlink:href="#a"/><use xlink:href="#b" x="37.996" y="4.317"/><use xlink:href="#2"/><use xlink:href="#3" y="2.171"/><use xlink:href="#5" y="4.342"/></svg><svg x="4644"><use xlink:href="#a"/><use xlink:href="#b" x="37.996" y="4.317"/><use xlink:href="#2"/><use xlink:href="#3" y="2.171"/><use xlink:href="#5" y="4.342"/></svg><svg x="4816"><use xlink:href="#a"/><use xlink:href="#b" x="-.004" y="6.488"/><use xlink:href="#2"/><use xlink:href="#3" y="2.171"/><use xlink:href="#5" y="4.342"/></svg><svg x="4988"><use xlink:href="#a"/><use xlink:href="#b" x="59.996" y="6.488"/><use xlink:href="#2"/><use xlink:href="#3" y="2.171"/><use xlink:href="#5" y="4.342"/><use xlink:href="#6" y="6.513"/></svg><svg x="5160"><use xlink:href="#a"/><use xlink:href="#b" x="-.004" y="8.659"/><use xlink:href="#2"/><use xlink:href="#3" y="2.171"/><use xlink:href="#5" y="4.342"/><use xlink:href="#6" y="6.513"/></svg><svg x="5332"><use xlink:href="#a"/><use xlink:href="#b" x="37.996" y="8.659"/><use xlink:href="#2"/><use xlink:href="#3" y="2.171"/><use xlink:href="#5" y="4.342"/><use xlink:href="#6" y="6.513"/><use xlink:href="#5" y="8.684"/></svg><svg x="5504"><use xlink:href="#a"/><use xlink:href="#b" x="38.996" y="8.659"/><use xlink:href="#2"/><use xlink:href="#3" y="2.171"/><use xlink:href="#5" y="4.342"/><use xlink:href="#6" y="6.513"/><text y="10.354" class="f">lb-01:~</text><text x="7.014" y="10.354" class="g">#</text><text x="9.018" y="10.354" class="h">dploy</text><text x="15.03" y="10.354" class="h">play</text><text x="20.04" y="10.354" class="h">--filter</text><text x="29.058" y="10.354" class="h">&quot;platform=&quot;</text></svg><svg x="5676"><use xlink:href="#a"/><use xlink:href="#b" x="39.996" y="8.659"/><use xlink:href="#2"/><use xlink:href="#3" y="2.171"/><use xlink:href="#5" y="4.342"/><use xlink:href="#6" y="6.513"/><use xlink:href="#7" y="8.684"/></svg><svg x="5848"><use xlink:href="#a"/><use xlink:href="#b" x="39.996" y="8.659"/><use xlink:href="#2"/><use xlink:href="#3" y="2.171"/><use xlink:href="#5" y="4.342"/><use xlink:href="#6" y="6.513"/><use xlink:href="#7" y="8.684"/></svg><svg x="6020"><use xlink:href="#a"/><use xlink:href="#b" x="-.004" y="10.83"/><use xlink:href="#2"/><use xlink:href="#3" y="2.171"/><use xlink:href="#5" y="4.342"/><use xlink:href="#6" y="6.513"/><use xlink:href="#7" y="8.684"/></svg><svg x="6192"><use xlink:href="#a"/><use xlink:href="#b" x="29.996" y="10.83"/><use xlink:href="#2"/><use xlink:href="#3" y="2.171"/><use xlink:href="#5" y="4.342"/><use xlink:href="#6" y="6.513"/><use xlink:href="#7" y="8.684"/><use xlink:href="#8" y="10.855"/></svg><svg x="6364"><use xlink:href="#a"/><use xlink:href="#b" x="-.004" y="13.001"/><use xlink:href="#2"/><use xlink:href="#3" y="2.171"/><use xlink:href="#5" y="4.342"/><use xlink:href="#6" y="6.513"/><use xlink:href="#7" y="8.684"/><use xlink:href="#8" y="10.855"/></svg><svg x="6536"><use xlink:href="#a"/><use xlink:href="#b" x="39.996" y="13.001"/><use xlink:href="#2"/><use xlink:href="#3" y="2.171"/><use xlink:href="#5" y="4.342"/><use xlink:href="#6" y="6.513"/><use xlink:href="#7" y="8.684"/><use xlink:href="#8" y="10.855"/><use xlink:href="#7" y="13.026"/></svg><svg x="6708"><use xlink:href="#a"/><use xlink:href="#b" x="40.996" y="13.001"/><use xlink:href="#2"/><use xlink:href="#3" y="2.171"/><use xlink:href="#5" y="4.342"/><use xlink:href="#6" y="6.513"/><use xlink:href="#7" y="8.684"/><use xlink:href="#8" y="10.855"/><text y="14.696" class="f">lb-01:~</text><text x="7.014" y="14.696" class="g">#</text><text x="9.018" y="14.696" class="h">dploy</text><text x="15.03" y="14.696" class="h">play</text><text x="20.04" y="14.696" class="h">--filter</text><text x="29.058" y="14.696" class="h">&quot;platform==a&quot;</text></svg><svg x="6880"><use xlink:href="#a"/><use xlink:href="#b" x="42.996" y="13.001"/><use xlink:href="#2"/><use xlink:href="#3" y="2.171"/><use xlink:href="#5" y="4.342"/><use xlink:href="#6" y="6.513"/><use xlink:href="#7" y="8.684"/><use xlink:href="#8" y="10.855"/><text y="14.696" class="f">lb-01:~</text><text x="7.014" y="14.696" class="g">#</text><text x="9.018" y="14.696" class="h">dploy</text><text x="15.03" y="14.696" class="h">play</text><text x="20.04" y="14.696" class="h">--filter</text><text x="29.058" y="14.696" class="h">&quot;platform==aws&quot;</text></svg><svg x="7052"><use xlink:href="#a"/><use xlink:href="#b" x="43.996" y="13.001"/><use xlink:href="#2"/><use xlink:href="#3" y="2.171"/><use xlink:href="#5" y="4.342"/><use xlink:href="#6" y="6.513"/><use xlink:href="#7" y="8.684"/><use xlink:href="#8" y="10.855"/><use xlink:href="#9" y="13.026"/></svg><svg x="7224"><use xlink:href="#a"/><use xlink:href="#b" x="43.996" y="13.001"/><use xlink:href="#2"/><use xlink:href="#3" y="2.171"/><use xlink:href="#5" y="4.342"/><use xlink:href="#6" y="6.513"/><use xlink:href="#7" y="8.684"/><use xlink:href="#8" y="10.855"/><use xlink:href="#9" y="13.026"/></svg><svg x="7396"><use xlink:href="#a"/><use xlink:href="#b" x="-.004" y="15.172"/><use xlink:href="#2"/><use xlink:href="#3" y="2.171"/><use xlink:href="#5" y="4.342"/><use xlink:href="#6" y="6.513"/><use xlink:href="#7" y="8.684"/><use xlink:href="#8" y="10.855"/><use xlink:href="#9" y="13.026"/></svg><svg x="7568"><use xlink:href="#a"/><use xlink:href="#b" x="119.996" y="15.172"/><use xlink:href="#2"/><use xlink:href="#3" y="2.171"/><use xlink:href="#5" y="4.342"/><use xlink:href="#6" y="6.513"/><use xlink:href="#7" y="8.684"/><use xlink:href="#8" y="10.855"/><use xlink:href="#9" y="13.026"/><use xlink:href="#10" y="15.197"/></svg><svg x="7740"><use xlink:href="#a"/><use xlink:href="#b" x="-.004" y="17.343"/><use xlink:href="#2"/><use xlink:href="#3" y="2.171"/><use xlink:href="#5" y="4.342"/><use xlink:href="#6" y="6.513"/><use xlink:href="#7" y="8.684"/><use xlink:href="#8" y="10.855"/><use xlink:href="#9" y="13.026"/><use xlink:href="#10" y="15.197"/></svg><svg x="7912"><use xlink:href="#a"/><use xlink:href="#b" x="43.996" y="17.343"/><use xlink:href="#2"/><use xlink:href="#3" y="2.171"/><use xlink:href="#5" y="4.342"/><use xlink:href="#6" y="6.513"/><use xlink:href="#7" y="8.684"/><use xlink:href="#8" y="10.855"/><use xlink:href="#9" y="13.026"/><use xlink:href="#10" y="15.197"/><use xlink:href="#9" y="17.368"/></svg><svg x="8084"><use xlink:href="#a"/><use xlink:href="#b" x="44.996" y="17.343"/><use xlink:href="#2"/><use xlink:href="#3" y="2.171"/><use xlink:href="#5" y="4.342"/><use xlink:href="#6" y="6.513"/><use xlink:href="#7" y="8.684"/><use xlink:href="#8" y="10.855"/><use xlink:href="#9" y="13.026"/><use xlink:href="#10" y="15.197"/><text y="19.038" class="f">lb-01:~</text><text x="7.014" y="19.038" class="g">#</text><text x="9.018" y="19.038" class="h">dploy</text><text x="15.03" y="19.038" class="h">play</text><text x="20.04" y="19.038" class="h">--filter</text><text x="29.058" y="19.038" class="h">&quot;platform==aws,c&quot;</text></svg><svg x="8256"><use xlink:href="#a"/><use xlink:href="#b" x="45.996" y="17.343"/><use xlink:href="#2"/><use xlink:href="#3" y="2.171"/><use xlink:href="#5" y="4.342"/><use xlink:href="#6" y="6.513"/><use xlink:href="#7" y="8.684"/><use xlink:href="#8" y="10.855"/><use xlink:href="#9" y="13.026"/><use xlink:href="#10" y="15.197"/><use xlink:href="#11" y="17.368"/></svg><svg x="8428"><use xlink:href="#a"/><use xlink:href="#b" x="45.996" y="17.343"/><use xlink:href="#2"/><use xlink:href="#3" y="2.171"/><use xlink:href="#5" y="4.342"/><use xlink:href="#6" y="6.513"/><use xlink:href="#7" y="8.684"/><use xlink:href="#8" y="10.855"/><use xlink:href="#9" y="13.026"/><use xlink:href="#10" y="15.197"/><use xlink:href="#11" y="17.368"/></svg><svg x="8600"><use xlink:href="#a"/><use xlink:href="#b" x="51.996" y="17.343"/><use xlink:href="#2"/><use xlink:href="#3" y="2.171"/><use xlink:href="#5" y="4.342"/><use xlink:href="#6" y="6.513"/><use xlink:href="#7" y="8.684"/><use xlink:href="#8" y="10.855"/><use xlink:href="#9" y="13.026"/><use xlink:href="#10" y="15.197"/><use xlink:href="#12" y="17.368"/></svg><svg x="8772"><use xlink:href="#a"/><use xlink:href="#b" x="51.996" y="17.343"/><use xlink:href="#2"/><use xlink:href="#3" y="2.171"/><use xlink:href="#5" y="4.342"/><use xlink:href="#6" y="6.513"/><use xlink:href="#7" y="8.684"/><use xlink:href="#8" y="10.855"/><use xlink:href="#9" y="13.026"/><use xlink:href="#10" y="15.197"/><use xlink:href="#12" y="17.368"/></svg><svg x="8944"><use xlink:href="#a"/><use xlink:href="#b" x="-.004" y="19.514"/><use xlink:href="#2"/><use xlink:href="#3" y="2.171"/><use xlink:href="#5" y="4.342"/><use xlink:href="#6" y="6.513"/><use xlink:href="#7" y="8.684"/><use xlink:href="#8" y="10.855"/><use xlink:href="#9" y="13.026"/><use xlink:href="#10" y="15.197"/><use xlink:href="#12" y="17.368"/></svg><svg x="9116"><use xlink:href="#a"/><use xlink:href="#b" x="129.996" y="19.514"/><use xlink:href="#2"/><use xlink:href="#3" y="2.171"/><use xlink:href="#5" y="4.342"/><use xlink:href="#6" y="6.513"/><use xlink:href="#7" y="8.684"/><use xlink:href="#8" y="10.855"/><use xlink:href="#9" y="13.026"/><use xlink:href="#10" y="15.197"/><use xlink:href="#12" y="17.368"/><use xlink:href="#13" y="19.539"/></svg><svg x="9288"><use xlink:href="#a"/><use xlink:href="#b" x="-.004" y="21.685"/><use xlink:href="#2"/><use xlink:href="#3" y="2.171"/><use xlink:href="#5" y="4.342"/><use xlink:href="#6" y="6.513"/><use xlink:href="#7" y="8.684"/><use xlink:href="#8" y="10.855"/><use xlink:href="#9" y="13.026"/><use xlink:href="#10" y="15.197"/><use xlink:href="#12" y="17.368"/><use xlink:href="#13" y="19.539"/></svg><svg x="9460"><use xlink:href="#a"/><use xlink:href="#b" x="51.996" y="21.685"/><use xlink:href="#2"/><use xlink:href="#3" y="2.171"/><use xlink:href="#5" y="4.342"/><use xlink:href="#6" y="6.513"/><use xlink:href="#7" y="8.684"/><use xlink:href="#8" y="10.855"/><use xlink:href="#9" y="13.026"/><use xlink:href="#10" y="15.197"/><use xlink:href="#12" y="17.368"/><use xlink:href="#13" y="19.539"/><use xlink:href="#12" y="21.71"/></svg><svg x="9632"><use xlink:href="#a"/><use xlink:href="#b" x="52.996" y="21.685"/><use xlink:href="#2"/><use xlink:href="#3" y="2.171"/><use xlink:href="#5" y="4.342"/><use xlink:href="#6" y="6.513"/><use xlink:href="#7" y="8.684"/><use xlink:href="#8" y="10.855"/><use xlink:href="#9" y="13.026"/><use xlink:href="#10" y="15.197"/><use xlink:href="#12" y="17.368"/><use xlink:href="#13" y="19.539"/><text y="23.38" class="f">lb-01:~</text><text x="7.014" y="23.38" class="g">#</text><text x="9.018" y="23.38" class="h">dploy</text><text x="15.03" y="23.38" class="h">play</text><text x="20.04" y="23.38" class="h">--filter</text><text x="29.058" y="23.38" class="h">&quot;platform==aws,customer!&quot;</text></svg><svg x="9804"><use xlink:href="#a"/><use xlink:href="#b" x="53.996" y="21.685"/><use xlink:href="#2"/><use xlink:href="#3" y="2.171"/><use xlink:href="#5" y="4.342"/><use xlink:href="#6" y="6.513"/><use xlink:href="#7" y="8.684"/><use xlink:href="#8" y="10.855"/><use xlink:href="#9" y="13.026"/><use xlink:href="#10" y="15.197"/><use xlink:href="#12" y="17.368"/><use xlink:href="#13" y="19.539"/><use xlink:href="#14" y="21.71"/></svg><svg x="9976"><use xlink:href="#a"/><use xlink:href="#b" x="53.996" y="21.685"/><use xlink:href="#2"/><use xlink:href="#3" y="2.171"/><use xlink:href="#5" y="4.342"/><use xlink:href="#6" y="6.513"/><use xlink:href="#7" y="8.684"/><use xlink:href="#8" y="10.855"/><use xlink:href="#9" y="13.026"/><use xlink:href="#10" y="15.197"/><use xlink:href="#12" y="17.368"/><use xlink:href="#13" y="19.539"/><use xlink:href="#14" y="21.71"/></svg><svg x="10148"><use xlink:href="#a"/><use xlink:href="#b" x="-.004" y="23.856"/><use xlink:href="#2"/><use xlink:href="#3" y="2.171"/><use xlink:href="#5" y="4.342"/><use xlink:href="#6" y="6.513"/><use xlink:href="#7" y="8.684"/><use xlink:href="#8" y="10.855"/><use xlink:href="#9" y="13.026"/><use xlink:href="#10" y="15.197"/><use xlink:href="#12" y="17.368"/><use xlink:href="#13" y="19.539"/><use xlink:href="#14" y="21.71"/></svg><svg x="10320"><use xlink:href="#a"/><use xlink:href="#b" x="133.996" y="23.856"/><use xlink:href="#2"/><use xlink:href="#3" y="2.171"/><use xlink:href="#5" y="4.342"/><use xlink:href="#6" y="6.513"/><use xlink:href="#7" y="8.684"/><use xlink:href="#8" y="10.855"/><use xlink:href="#9" y="13.026"/><use xlink:href="#10" y="15.197"/><use xlink:href="#12" y="17.368"/><use xlink:href="#13" y="19.539"/><use xlink:href="#14" y="21.71"/><use xlink:href="#15" y="23.881"/></svg><svg x="10492"><use xlink:href="#a"/><use xlink:href="#b" x="-.004" y="26.027"/><use xlink:href="#2"/><use xlink:href="#3" y="2.171"/><use xlink:href="#5" y="4.342"/><use xlink:href="#6" y="6.513"/><use xlink:href="#7" y="8.684"/><use xlink:href="#8" y="10.855"/><use xlink:href="#9" y="13.026"/><use xlink:href="#10" y="15.197"/><use xlink:href="#12" y="17.368"/><use xlink:href="#13" y="19.539"/><use xlink:href="#14" y="21.71"/><use xlink:href="#15" y="23.881"/></svg><svg x="10664"><use xlink:href="#a"/><use xlink:href="#b" x="53.996" y="26.027"/><use xlink:href="#2"/><use xlink:href="#3" y="2.171"/><use xlink:href="#5" y="4.342"/><use xlink:href="#6" y="6.513"/><use xlink:href="#7" y="8.684"/><use xlink:href="#8" y="10.855"/><use xlink:href="#9" y="13.026"/><use xlink:href="#10" y="15.197"/><use xlink:href="#12" y="17.368"/><use xlink:href="#13" y="19.539"/><use xlink:href="#14" y="21.71"/><use xlink:href="#15" y="23.881"/><use xlink:href="#14" y="26.052"/></svg><svg x="10836"><use xlink:href="#a"/><use xlink:href="#b" x="54.996" y="26.027"/><use xlink:href="#2"/><use xlink:href="#3" y="2.171"/><use xlink:href="#5" y="4.342"/><use xlink:href="#6" y="6.513"/><use xlink:href="#7" y="8.684"/><use xlink:href="#8" y="10.855"/><use xlink:href="#9" y="13.026"/><use xlink:href="#10" y="15.197"/><use xlink:href="#12" y="17.368"/><use xlink:href="#13" y="19.539"/><use xlink:href="#14" y="21.71"/><use xlink:href="#15" y="23.881"/><text y="27.722" class="f">lb-01:~</text><text x="7.014" y="27.722" class="g">#</text><text x="9.018" y="27.722" class="h">dploy</text><text x="15.03" y="27.722" class="h">play</text><text x="20.04" y="27.722" class="h">--filter</text><text x="29.058" y="27.722" class="h">&quot;platform==aws,customer!=c&quot;</text></svg><svg x="11008"><use xlink:href="#a"/><use xlink:href="#b" x="55.996" y="26.027"/><use xlink:href="#2"/><use xlink:href="#3" y="2.171"/><use xlink:href="#5" y="4.342"/><use xlink:href="#6" y="6.513"/><use xlink:href="#7" y="8.684"/><use xlink:href="#8" y="10.855"/><use xlink:href="#9" y="13.026"/><use xlink:href="#10" y="15.197"/><use xlink:href="#12" y="17.368"/><use xlink:href="#13" y="19.539"/><use xlink:href="#14" y="21.71"/><use xlink:href="#15" y="23.881"/><use xlink:href="#16" y="26.052"/></svg><svg x="11180"><use xlink:href="#a"/><use xlink:href="#b" x="55.996" y="26.027"/><use xlink:href="#2"/><use xlink:href="#3" y="2.171"/><use xlink:href="#5" y="4.342"/><use xlink:href="#6" y="6.513"/><use xlink:href="#7" y="8.684"/><use xlink:href="#8" y="10.855"/><use xlink:href="#9" y="13.026"/><use xlink:href="#10" y="15.197"/><use xlink:href="#12" y="17.368"/><use xlink:href="#13" y="19.539"/><use xlink:href="#14" y="21.71"/><use xlink:href="#15" y="23.881"/><use xlink:href="#16" y="26.052"/></svg><svg x="11352"><use xlink:href="#a"/><use xlink:href="#b" x="61.996" y="26.027"/><use xlink:href="#2"/><use xlink:href="#3" y="2.171"/><use xlink:href="#5" y="4.342"/><use xlink:href="#6" y="6.513"/><use xlink:href="#7" y="8.684"/><use xlink:href="#8" y="10.855"/><use xlink:href="#9" y="13.026"/><use xlink:href="#10" y="15.197"/><use xlink:href="#12" y="17.368"/><use xlink:href="#13" y="19.539"/><use xlink:href="#14" y="21.71"/><use xlink:href="#15" y="23.881"/><use xlink:href="#17" y="26.052"/></svg><svg x="11524"><use xlink:href="#a"/><use xlink:href="#b" x="61.996" y="26.027"/><use xlink:href="#2"/><use xlink:href="#3" y="2.171"/><use xlink:href="#5" y="4.342"/><use xlink:href="#6" y="6.513"/><use xlink:href="#7" y="8.684"/><use xlink:href="#8" y="10.855"/><use xlink:href="#9" y="13.026"/><use xlink:href="#10" y="15.197"/><use xlink:href="#12" y="17.368"/><use xlink:href="#13" y="19.539"/><use xlink:href="#14" y="21.71"/><use xlink:href="#15" y="23.881"/><use xlink:href="#17" y="26.052"/></svg><svg x="11696"><use xlink:href="#a"/><use xlink:href="#b" x="-.004" y="28.198"/><use xlink:href="#2"/><use xlink:href="#3" y="2.171"/><use xlink:href="#5" y="4.342"/><use xlink:href="#6" y="6.513"/><use xlink:href="#7" y="8.684"/><use xlink:href="#8" y="10.855"/><use xlink:href="#9" y="13.026"/><use xlink:href="#10" y="15.197"/><use xlink:href="#12" y="17.368"/><use xlink:href="#13" y="19.539"/><use xlink:href="#14" y="21.71"/><use xlink:href="#15" y="23.881"/><use xlink:href="#17" y="26.052"/></svg><svg x="11868"><use xlink:href="#a"/><use xlink:href="#b" x="104.996" y="28.198"/><use xlink:href="#2"/><use xlink:href="#3" y="2.171"/><use xlink:href="#5" y="4.342"/><use xlink:href="#6" y="6.513"/><use xlink:href="#7" y="8.684"/><use xlink:href="#8" y="10.855"/><use xlink:href="#9" y="13.026"/><use xlink:href="#10" y="15.197"/><use xlink:href="#12" y="17.368"/><use xlink:href="#13" y="19.539"/><use xlink:href="#14" y="21.71"/><use xlink:href="#15" y="23.881"/><use xlink:href="#17" y="26.052"/><use xlink:href="#18" y="28.223"/></svg><svg x="12040"><use xlink:href="#a"/><use xlink:href="#b" x="-.004" y="30.369"/><use xlink:href="#2"/><use xlink:href="#3" y="2.171"/><use xlink:href="#5" y="4.342"/><use xlink:href="#6" y="6.513"/><use xlink:href="#7" y="8.684"/><use xlink:href="#8" y="10.855"/><use xlink:href="#9" y="13.026"/><use xlink:href="#10" y="15.197"/><use xlink:href="#12" y="17.368"/><use xlink:href="#13" y="19.539"/><use xlink:href="#14" y="21.71"/><use xlink:href="#15" y="23.881"/><use xlink:href="#17" y="26.052"/><use xlink:href="#18" y="28.223"/></svg><svg x="12212"><use xlink:href="#a"/><use xlink:href="#b" x="61.996" y="30.369"/><use xlink:href="#2"/><use xlink:href="#3" y="2.171"/><use xlink:href="#5" y="4.342"/><use xlink:href="#6" y="6.513"/><use xlink:href="#7" y="8.684"/><use xlink:href="#8" y="10.855"/><use xlink:href="#9" y="13.026"/><use xlink:href="#10" y="15.197"/><use xlink:href="#12" y="17.368"/><use xlink:href="#13" y="19.539"/><use xlink:href="#14" y="21.71"/><use xlink:href="#15" y="23.881"/><use xlink:href="#17" y="26.052"/><use xlink:href="#18" y="28.223"/><use xlink:href="#17" y="30.394"/></svg><svg x="12384"><use xlink:href="#a"/><use xlink:href="#b" x="62.996" y="30.369"/><use xlink:href="#2"/><use xlink:href="#3" y="2.171"/><use xlink:href="#5" y="4.342"/><use xlink:href="#6" y="6.513"/><use xlink:href="#7" y="8.684"/><use xlink:href="#8" y="10.855"/><use xlink:href="#9" y="13.026"/><use xlink:href="#10" y="15.197"/><use xlink:href="#12" y="17.368"/><use xlink:href="#13" y="19.539"/><use xlink:href="#14" y="21.71"/><use xlink:href="#15" y="23.881"/><use xlink:href="#17" y="26.052"/><use xlink:href="#18" y="28.223"/><text y="32.064" class="f">lb-01:~</text><text x="7.014" y="32.064" class="g">#</text><text x="9.018" y="32.064" class="h">dploy</text><text x="15.03" y="32.064" class="h">play</text><text x="20.04" y="32.064" class="h">--filter</text><text x="29.058" y="32.064" class="h">&quot;platform==aws,customer!=customer1&quot;</text></svg><svg x="12556"><use xlink:href="#a"/><use xlink:href="#b" x="64.996" y="30.369"/><use xlink:href="#2"/><use xlink:href="#3" y="2.171"/><use xlink:href="#5" y="4.342"/><use xlink:href="#6" y="6.513"/><use xlink:href="#7" y="8.684"/><use xlink:href="#8" y="10.855"/><use xlink:href="#9" y="13.026"/><use xlink:href="#10" y="15.197"/><use xlink:href="#12" y="17.368"/><use xlink:href="#13" y="19.539"/><use xlink:href="#14" y="21.71"/><use xlink:href="#15" y="23.881"/><use xlink:href="#17" y="26.052"/><use xlink:href="#18" y="28.223"/><use xlink:href="#19" y="30.394"/></svg><svg x="12728"><use xlink:href="#a"/><use xlink:href="#b" x="-.004" y="32.54"/><use xlink:href="#2"/><use xlink:href="#3" y="2.171"/><use xlink:href="#5" y="4.342"/><use xlink:href="#6" y="6.513"/><use xlink:href="#7" y="8.684"/><use xlink:href="#8" y="10.855"/><use xlink:href="#9" y="13.026"/><use xlink:href="#10" y="15.197"/><use xlink:href="#12" y="17.368"/><use xlink:href="#13" y="19.539"/><use xlink:href="#14" y="21.71"/><use xlink:href="#15" y="23.881"/><use xlink:href="#17" y="26.052"/><use xlink:href="#18" y="28.223"/><use xlink:href="#19" y="30.394"/></svg><svg x="12900"><use xlink:href="#a"/><use xlink:href="#b" x="8.996" y="32.54"/><use xlink:href="#2"/><use xlink:href="#3" y="2.171"/><use xlink:href="#5" y="4.342"/><use xlink:href="#6" y="6.513"/><use xlink:href="#7" y="8.684"/><use xlink:href="#8" y="10.855"/><use xlink:href="#9" y="13.026"/><use xlink:href="#10" y="15.197"/><use xlink:href="#12" y="17.368"/><use xlink:href="#13" y="19.539"/><use xlink:href="#14" y="21.71"/><use xlink:href="#15" y="23.881"/><use xlink:href="#17" y="26.052"/><use xlink:href="#18" y="28.223"/><use xlink:href="#19" y="30.394"/><text y="34.235" class="f">lb-01:~</text><path class="i" d="M7.014 32.565h1v2.171h-1z"/><text x="7.014" y="34.235" class="j">#</text></svg><svg x="13072"><use xlink:href="#a"/><use xlink:href="#b" x="12.996" y="32.54"/><use xlink:href="#2"/><use xlink:href="#3" y="2.171"/><use xlink:href="#5" y="4.342"/><use xlink:href="#6" y="6.513"/><use xlink:href="#7" y="8.684"/><use xlink:href="#8" y="10.855"/><use xlink:href="#9" y="13.026"/><use xlink:href="#10" y="15.197"/><use xlink:href="#12" y="17.368"/><use xlink:href="#13" y="19.539"/><use xlink:href="#14" y="21.71"/><use xlink:href="#15" y="23.881"/><use xlink:href="#17" y="26.052"/><use xlink:href="#18" y="28.223"/><use xlink:href="#19" y="30.394"/><use xlink:href="#20" y="32.565"/></svg><svg x="13244"><use xlink:href="#a"/><use xlink:href="#b" x="-.004" y="34.711"/><use xlink:href="#2"/><use xlink:href="#3" y="2.171"/><use xlink:href="#5" y="4.342"/><use xlink:href="#6" y="6.513"/><use xlink:href="#7" y="8.684"/><use xlink:href="#8" y="10.855"/><use xlink:href="#9" y="13.026"/><use xlink:href="#10" y="15.197"/><use xlink:href="#12" y="17.368"/><use xlink:href="#13" y="19.539"/><use xlink:href="#14" y="21.71"/><use xlink:href="#15" y="23.881"/><use xlink:href="#17" y="26.052"/><use xlink:href="#18" y="28.223"/><use xlink:href="#19" y="30.394"/><use xlink:href="#20" y="32.565"/></svg></svg></g></g></svg></svg>